<svg xmlns="http://www.w3.org/2000/svg" width="512" height="400" viewBox="0 0 512 400" role="img">
<title>电脑支架 · 进阶 064：原创商品概念图</title>
<desc>根据商品名称绘制的原创矢量示意，展示基本形态；并非真实商品照片。</desc>
<rect width="512" height="400" fill="#edf0f2"/>
<ellipse cx="256" cy="329" rx="124" ry="11" fill="#dce2e7"/>
<defs>
      <linearGradient id="pe794b5e88491e694afe69eb6-3-body" x1="0" y1="0" x2="1" y2="1"><stop stop-color="#c8af9c"/><stop offset=".55" stop-color="#b39177"/><stop offset="1" stop-color="#8f745f"/></linearGradient>
      <linearGradient id="pe794b5e88491e694afe69eb6-3-metal" x1="0" y1="0" x2="1" y2=".4"><stop stop-color="#aeb9c3"/><stop offset=".35" stop-color="#e1e7ec"/><stop offset=".65" stop-color="#c9d2db"/><stop offset="1" stop-color="#8c9aa7"/></linearGradient>
      <pattern id="pe794b5e88491e694afe69eb6-3-fabric" width="5" height="5" patternUnits="userSpaceOnUse"><path d="M0 1h5M1 0v5" stroke="#edf1f4" stroke-opacity=".13" stroke-width=".65"/></pattern>
      <pattern id="pe794b5e88491e694afe69eb6-3-holes" width="8" height="8" patternUnits="userSpaceOnUse"><circle cx="4" cy="4" r="1.35" fill="#26313c" fill-opacity=".45"/></pattern>
    </defs><g transform="translate(256 200) scale(1.015 0.996) translate(-256 -200)"><path d="M184 124h153l48 32-71 34-145-14Z" fill="url(#pe794b5e88491e694afe69eb6-3-metal)" /><path d="M171 175h142l-23 91H151Z" fill="url(#pe794b5e88491e694afe69eb6-3-body)" /><path d="M220 197h58l-11 46h-59Z" fill="#edf0f2" /><path d="M150 265h140l89 36H171l-41-14Z" fill="url(#pe794b5e88491e694afe69eb6-3-metal)" /><rect x="141" y="293" width="248" height="17" rx="8" fill="#8f745f" /><path d="M178 170h136" fill="none" stroke="#7f8d98" stroke-width="6" stroke-linecap="round" stroke-linejoin="round" /><path d="M181 127h24M304 127h23" fill="none" stroke="#26313c" stroke-width="5" stroke-linecap="round" stroke-linejoin="round" /></g>
<text x="256" y="374" text-anchor="middle" font-family="Segoe UI, sans-serif" font-size="11" letter-spacing="1" fill="#697784">BS-0064 · CONCEPT ILLUSTRATION</text>
</svg>