<svg xmlns="http://www.w3.org/2000/svg" width="512" height="400" viewBox="0 0 512 400" role="img">
<title>护腕鼠标垫 · 进阶 068：原创商品概念图</title>
<desc>根据商品名称绘制的原创矢量示意，展示基本形态；并非真实商品照片。</desc>
<rect width="512" height="400" fill="#edf0f2"/>
<ellipse cx="256" cy="329" rx="124" ry="11" fill="#dce2e7"/>
<defs>
      <linearGradient id="pe68aa4e88595e9bca0e6a087e59eab-3-body" x1="0" y1="0" x2="1" y2="1"><stop stop-color="#c8af9c"/><stop offset=".55" stop-color="#b39177"/><stop offset="1" stop-color="#8f745f"/></linearGradient>
      <linearGradient id="pe68aa4e88595e9bca0e6a087e59eab-3-metal" x1="0" y1="0" x2="1" y2=".4"><stop stop-color="#aeb9c3"/><stop offset=".35" stop-color="#e1e7ec"/><stop offset=".65" stop-color="#c9d2db"/><stop offset="1" stop-color="#8c9aa7"/></linearGradient>
      <pattern id="pe68aa4e88595e9bca0e6a087e59eab-3-fabric" width="5" height="5" patternUnits="userSpaceOnUse"><path d="M0 1h5M1 0v5" stroke="#edf1f4" stroke-opacity=".13" stroke-width=".65"/></pattern>
      <pattern id="pe68aa4e88595e9bca0e6a087e59eab-3-holes" width="8" height="8" patternUnits="userSpaceOnUse"><circle cx="4" cy="4" r="1.35" fill="#26313c" fill-opacity=".45"/></pattern>
    </defs><g transform="translate(256 200) scale(1.015 0.996) translate(-256 -200)"><path d="M165 115h185q22 0 29 24l32 139q6 33-26 35H132q-34-2-26-35l34-139q4-24 25-24Z" fill="#8f745f" /><path d="M166 112h183q22 0 28 24l24 114H116l26-114q5-24 24-24Z" fill="url(#pe68aa4e88595e9bca0e6a087e59eab-3-body)" /><path d="M123 253q129-48 270 0l8 22q7 30-20 32H136q-30-3-23-28Z" fill="#c8af9c" /><path d="M132 257q125-38 250 0" fill="none" stroke="#d6c4b6" stroke-width="2" stroke-linecap="round" stroke-linejoin="round" /></g>
<text x="256" y="374" text-anchor="middle" font-family="Segoe UI, sans-serif" font-size="11" letter-spacing="1" fill="#697784">BS-0068 · CONCEPT ILLUSTRATION</text>
</svg>