<svg xmlns="http://www.w3.org/2000/svg" width="512" height="400" viewBox="0 0 512 400" role="img">
<title>氮化镓充电器 · 进阶 031：原创商品概念图</title>
<desc>根据商品名称绘制的原创矢量示意，展示基本形态；并非真实商品照片。</desc>
<rect width="512" height="400" fill="#edf0f2"/>
<ellipse cx="256" cy="329" rx="124" ry="11" fill="#dce2e7"/>
<defs>
      <linearGradient id="pe6b0aee58c96e99593e58585e794b5e599a8-3-body" x1="0" y1="0" x2="1" y2="1"><stop stop-color="#c8af9c"/><stop offset=".55" stop-color="#b39177"/><stop offset="1" stop-color="#8f745f"/></linearGradient>
      <linearGradient id="pe6b0aee58c96e99593e58585e794b5e599a8-3-metal" x1="0" y1="0" x2="1" y2=".4"><stop stop-color="#aeb9c3"/><stop offset=".35" stop-color="#e1e7ec"/><stop offset=".65" stop-color="#c9d2db"/><stop offset="1" stop-color="#8c9aa7"/></linearGradient>
      <pattern id="pe6b0aee58c96e99593e58585e794b5e599a8-3-fabric" width="5" height="5" patternUnits="userSpaceOnUse"><path d="M0 1h5M1 0v5" stroke="#edf1f4" stroke-opacity=".13" stroke-width=".65"/></pattern>
      <pattern id="pe6b0aee58c96e99593e58585e794b5e599a8-3-holes" width="8" height="8" patternUnits="userSpaceOnUse"><circle cx="4" cy="4" r="1.35" fill="#26313c" fill-opacity=".45"/></pattern>
    </defs><g transform="translate(256 200) scale(1.015 0.996) translate(-256 -200)"><rect x="204" y="54" width="16" height="60" rx="4" fill="url(#pe6b0aee58c96e99593e58585e794b5e599a8-3-metal)" /><rect x="291" y="54" width="16" height="60" rx="4" fill="url(#pe6b0aee58c96e99593e58585e794b5e599a8-3-metal)" /><rect x="168" y="99" width="177" height="211" rx="32" fill="url(#pe6b0aee58c96e99593e58585e794b5e599a8-3-body)" /><path d="M325 111q20 6 20 29v145q0 22-20 25Z" fill="#8f745f" /><rect x="189" y="120" width="120" height="6" rx="3" fill="#c8af9c" /><rect x="216" y="168" width="64" height="21" rx="8" fill="#26313c" /><rect x="225" y="173" width="46" height="6" rx="3" fill="#7e8a96" /><text x="250" y="258" text-anchor="middle" fill="#e7edf1" font-family="sans-serif" font-size="23" font-weight="600">65W</text></g>
<text x="256" y="374" text-anchor="middle" font-family="Segoe UI, sans-serif" font-size="11" letter-spacing="1" fill="#697784">BS-0031 · CONCEPT ILLUSTRATION</text>
</svg>