<svg xmlns="http://www.w3.org/2000/svg" width="512" height="400" viewBox="0 0 512 400" role="img">
<title>读卡器 · 轻享 007：原创商品概念图</title>
<desc>根据商品名称绘制的原创矢量示意，展示基本形态；并非真实商品照片。</desc>
<ellipse cx="256" cy="329" rx="124" ry="11" fill="#dce2e7"/>
<defs>
      <linearGradient id="pe8afbbe58da1e599a8-0-body" x1="0" y1="0" x2="1" y2="1"><stop stop-color="#687079"/><stop offset=".55" stop-color="#303b48"/><stop offset="1" stop-color="#262f3a"/></linearGradient>
      <linearGradient id="pe8afbbe58da1e599a8-0-metal" x1="0" y1="0" x2="1" y2=".4"><stop stop-color="#aeb9c3"/><stop offset=".35" stop-color="#e1e7ec"/><stop offset=".65" stop-color="#c9d2db"/><stop offset="1" stop-color="#8c9aa7"/></linearGradient>
      <pattern id="pe8afbbe58da1e599a8-0-fabric" width="5" height="5" patternUnits="userSpaceOnUse"><path d="M0 1h5M1 0v5" stroke="#edf1f4" stroke-opacity=".13" stroke-width=".65"/></pattern>
      <pattern id="pe8afbbe58da1e599a8-0-holes" width="8" height="8" patternUnits="userSpaceOnUse"><circle cx="4" cy="4" r="1.35" fill="#26313c" fill-opacity=".45"/></pattern>
    </defs><g transform="translate(256 200) scale(0.940 0.960) translate(-256 -200)"><rect x="151" y="146" width="214" height="109" rx="17" fill="url(#pe8afbbe58da1e599a8-0-metal)" /><rect x="151" y="220" width="214" height="35" rx="12" fill="url(#pe8afbbe58da1e599a8-0-body)" /><rect x="352" y="176" width="54" height="45" rx="8" fill="url(#pe8afbbe58da1e599a8-0-metal)" /><rect x="393" y="182" width="10" height="32" rx="3" fill="#26313c" /><rect x="143" y="174" width="92" height="30" rx="3" fill="#26313c" /><path d="M101 124h69l24 24v84h-93Z" fill="#262f3a" /><rect x="116" y="144" width="57" height="38" rx="4" fill="#687079" /><rect x="113" y="218" width="6" height="16" rx="1" fill="#b9a577" /><rect x="124" y="218" width="6" height="16" rx="1" fill="#b9a577" /><rect x="135" y="218" width="6" height="16" rx="1" fill="#b9a577" /><rect x="146" y="218" width="6" height="16" rx="1" fill="#b9a577" /><rect x="157" y="218" width="6" height="16" rx="1" fill="#b9a577" /><rect x="168" y="218" width="6" height="16" rx="1" fill="#b9a577" /><path d="M264 171h70M264 185h42" fill="none" stroke="#8494a2" stroke-width="3" stroke-linecap="round" stroke-linejoin="round" /></g>
</svg>